<?xml version="1.0" encoding="UTF-8" standalone="no"?>
<!DOCTYPE svg PUBLIC "-//W3C//DTD SVG 1.1//EN" "http://www.w3.org/Graphics/SVG/1.1/DTD/svg11.dtd">
<svg version="1.1" xmlns="http://www.w3.org/2000/svg" xmlns:xlink="http://www.w3.org/1999/xlink" preserveAspectRatio="xMidYMid meet" viewBox="0 0 1500 1500" width="1500" height="1500"><defs><path d="M1500 750C1500 1163.94 1163.94 1500 750 1500C336.06 1500 0 1163.94 0 750C0 336.06 336.06 0 750 0C1163.94 0 1500 336.06 1500 750Z" id="a8JzVztu8"></path><radialGradient id="gradientb4YvizufUC" gradientUnits="userSpaceOnUse" cx="750" cy="750" dx="0" dy="750" r="750"><stop style="stop-color: #eff6e0;stop-opacity: 1" offset="0%"></stop><stop style="stop-color: #eff6e0;stop-opacity: 1" offset="16.88353827471371%"></stop><stop style="stop-color: #aec3b0;stop-opacity: 1" offset="31.855522531782725%"></stop><stop style="stop-color: #598392;stop-opacity: 1" offset="50.12255813953491%"></stop><stop style="stop-color: #124559;stop-opacity: 1" offset="69.3798449612402%"></stop><stop style="stop-color: #01161e;stop-opacity: 1" offset="100%"></stop></radialGradient><path d="M1375 750C1375 1094.95 1094.95 1375 750 1375C405.05 1375 125 1094.95 125 750C125 405.05 405.05 125 750 125C1094.95 125 1375 405.05 1375 750Z" id="bzTVQHkC"></path><path d="M1124.12 276.48L1141.61 278.35L1149.18 279.52L1148.37 279.58L1138.24 280.7L1128.16 282.2L1118.13 284.09L1108.16 286.36L1098.27 289.01L1088.47 292.05L1078.78 295.46L1069.19 299.26L1059.73 303.43L1050.42 307.99L1041.25 312.91L1032.24 318.22L1023.41 323.89L1014.76 329.94L1006.31 336.36L998.07 343.15L990.06 350.31L982.28 357.84L974.74 365.74L967.47 374L960.53 382.55L953.99 391.29L947.86 400.21L942.13 409.31L936.8 418.56L931.87 427.96L927.34 437.49L923.21 447.14L919.48 456.9L916.14 466.76L913.2 476.71L910.65 486.72L908.5 496.8L906.74 506.93L905.38 517.1L904.4 527.29L903.82 537.5L903.62 547.7L903.81 557.9L904.39 568.07L904.52 569.41L904.67 569.53L911.49 575.61L918.06 581.94L924.39 588.51L930.47 595.33L936.28 602.37L941.83 609.64L947.1 617.13L952.09 624.82L956.78 632.71L961.17 640.79L965.26 649.06L969.03 657.5L972.48 666.12L975.6 674.89L978.38 683.82L980.81 692.9L982.89 702.12L984.61 711.46L985.96 720.93L986.93 730.51L987.52 740.21L987.72 750L987.52 759.79L986.93 769.49L985.96 779.07L984.61 788.54L982.89 797.88L980.81 807.1L978.38 816.18L975.6 825.11L972.48 833.88L969.03 842.5L965.26 850.94L961.17 859.21L956.78 867.29L956.68 867.47L957.07 867.8L955.49 870.66L944.02 889.91L931.86 908.99L919.01 927.88L905.48 946.55L891.26 964.98L876.36 983.14L860.92 1000.85L845.11 1017.93L828.94 1034.38L812.45 1050.18L795.66 1065.34L778.57 1079.85L761.23 1093.7L743.65 1106.89L725.85 1119.41L707.85 1131.25L689.68 1142.42L671.36 1152.91L652.91 1162.7L634.36 1171.81L615.72 1180.21L597.02 1187.91L578.28 1194.9L559.52 1201.17L540.76 1206.72L522.04 1211.55L503.36 1215.64L484.75 1219L466.24 1221.62L447.85 1223.49L429.59 1224.6L411.49 1224.96L393.58 1224.56L375.87 1223.39L358.39 1221.44L350.83 1220.25L351.63 1220.19L361.76 1219.11L371.85 1217.65L381.89 1215.8L391.87 1213.57L401.77 1210.95L411.58 1207.95L421.29 1204.57L430.89 1200.81L440.36 1196.68L449.7 1192.16L458.88 1187.27L467.91 1182L476.77 1176.36L485.44 1170.34L493.91 1163.96L502.17 1157.2L510.22 1150.07L518.03 1142.57L525.59 1134.7L532.9 1126.46L539.87 1117.94L546.44 1109.23L552.61 1100.33L558.37 1091.26L563.74 1082.03L568.7 1072.65L573.27 1063.14L577.44 1053.5L581.21 1043.75L584.58 1033.91L587.56 1023.97L590.15 1013.96L592.34 1003.89L594.13 993.77L595.54 983.61L596.55 973.42L597.18 963.22L597.41 953.02L597.26 942.82L596.72 932.65L596.62 931.53L595.33 930.47L588.51 924.39L581.94 918.06L575.61 911.49L569.53 904.67L563.72 897.63L558.17 890.36L552.9 882.87L547.91 875.18L543.22 867.29L538.83 859.21L534.74 850.94L530.97 842.5L527.52 833.88L524.4 825.11L521.62 816.18L519.19 807.1L517.11 797.88L515.39 788.54L514.04 779.07L513.07 769.49L512.48 759.79L512.28 750L512.48 740.21L513.07 730.51L514.04 720.93L515.39 711.46L517.11 702.12L519.19 692.9L521.62 683.82L524.4 674.89L527.52 666.12L530.97 657.5L534.74 649.06L538.83 640.79L543.22 632.71L547.91 624.82L552.9 617.13L558.17 609.64L562.1 604.5L569.35 593.01L582.13 574.07L595.59 555.35L609.74 536.87L624.57 518.65L639.94 500.88L655.69 483.73L671.78 467.22L688.21 451.36L704.95 436.13L721.98 421.56L739.27 407.64L756.8 394.39L774.55 381.8L792.5 369.88L810.63 358.65L828.91 348.09L847.32 338.22L865.84 329.05L884.44 320.57L903.12 312.8L921.83 305.74L940.56 299.4L959.29 293.78L978 288.88L996.66 284.71L1015.25 281.28L1033.76 278.59L1052.14 276.65L1070.4 275.47L1088.49 275.04L1106.41 275.37L1124.12 276.48Z" id="b1QquFt9ar"></path><path d="M821.45 750C821.45 791.39 787.84 825 746.45 825C705.05 825 671.45 791.39 671.45 750C671.45 708.61 705.05 675 746.45 675C787.84 675 821.45 708.61 821.45 750Z" id="d1gsHtcWMj"></path><radialGradient id="gradientc9E7wNWNqW" gradientUnits="userSpaceOnUse" cx="746.45" cy="750" dx="519.17" dy="750" r="227.27"><stop style="stop-color: #eff6e0;stop-opacity: 1" offset="0%"></stop><stop style="stop-color: #aec3b0;stop-opacity: 1" offset="100%"></stop></radialGradient></defs><g><g><g><use xlink:href="#a8JzVztu8" opacity="1" fill="url(#gradientb4YvizufUC)"></use></g><g><use xlink:href="#bzTVQHkC" opacity="1" fill="#1e4d2b" fill-opacity="0"></use><g><use xlink:href="#bzTVQHkC" opacity="1" fill-opacity="0" stroke="#ffffff" stroke-width="20" stroke-opacity="1"></use></g></g><g><use xlink:href="#b1QquFt9ar" opacity="1" fill="#ffffff" fill-opacity="1"></use></g><g><use xlink:href="#d1gsHtcWMj" opacity="1" fill="url(#gradientc9E7wNWNqW)"></use></g></g></g></svg>